<svg width="25" height="25" viewBox="0 0 25 25" fill="none" xmlns="http://www.w3.org/2000/svg">
<path d="M12.5029 6.09876C8.96461 6.09876 6.11061 8.94006 6.11061 12.4626C6.11061 15.9851 8.96461 18.8264 12.5029 18.8264C16.0412 18.8264 18.8952 15.9851 18.8952 12.4626C18.8952 8.94006 16.0412 6.09876 12.5029 6.09876ZM12.5029 16.5999C10.2164 16.5999 8.34708 14.7445 8.34708 12.4626C8.34708 10.1807 10.2108 8.32527 12.5029 8.32527C14.795 8.32527 16.6587 10.1807 16.6587 12.4626C16.6587 14.7445 14.7894 16.5999 12.5029 16.5999ZM20.6477 5.83845C20.6477 6.6637 19.9801 7.32279 19.1567 7.32279C18.3277 7.32279 17.6657 6.65816 17.6657 5.83845C17.6657 5.01873 18.3333 4.3541 19.1567 4.3541C19.9801 4.3541 20.6477 5.01873 20.6477 5.83845ZM24.8814 7.34494C24.7868 5.35659 24.3306 3.59532 22.8674 2.14421C21.4098 0.693094 19.6407 0.238929 17.6434 0.139235C15.585 0.0229243 9.41524 0.0229243 7.3568 0.139235C5.36512 0.233391 3.59597 0.687555 2.13281 2.13867C0.669645 3.58978 0.219013 5.35105 0.118873 7.3394C0.00204238 9.38868 0.00204238 15.531 0.118873 17.5803C0.21345 19.5686 0.669645 21.3299 2.13281 22.781C3.59597 24.2321 5.35955 24.6863 7.3568 24.786C9.41524 24.9023 15.585 24.9023 17.6434 24.786C19.6407 24.6918 21.4098 24.2376 22.8674 22.781C24.325 21.3299 24.7812 19.5686 24.8814 17.5803C24.9982 15.531 24.9982 9.39422 24.8814 7.34494ZM22.2221 19.7791C21.7881 20.8646 20.9481 21.701 19.8521 22.1385C18.2109 22.7865 14.3166 22.637 12.5029 22.637C10.6892 22.637 6.78934 22.781 5.15371 22.1385C4.06329 21.7065 3.22323 20.8702 2.78372 19.7791C2.13281 18.1452 2.28302 14.2682 2.28302 12.4626C2.28302 10.657 2.13837 6.77447 2.78372 5.14612C3.21766 4.06056 4.05773 3.22423 5.15371 2.78668C6.7949 2.13867 10.6892 2.28821 12.5029 2.28821C14.3166 2.28821 18.2165 2.1442 19.8521 2.78668C20.9425 3.21869 21.7826 4.05502 22.2221 5.14612C22.873 6.78001 22.7228 10.657 22.7228 12.4626C22.7228 14.2682 22.873 18.1507 22.2221 19.7791Z" fill="#001217"/>
</svg>
