<svg width="28" height="22" viewBox="0 0 28 22" fill="none" xmlns="http://www.w3.org/2000/svg">
<path d="M24.6794 5.94023C24.6964 6.16935 24.6964 6.39852 24.6964 6.62764C24.6964 13.6162 19.1723 21.6686 9.07575 21.6686C5.96521 21.6686 3.07566 20.8011 0.64502 19.2954C1.08697 19.3445 1.51186 19.3609 1.97082 19.3609C4.53739 19.3609 6.90007 18.5262 8.78679 17.1023C6.37315 17.0532 4.35045 15.5311 3.65354 13.4361C3.99352 13.4852 4.33344 13.518 4.69042 13.518C5.18333 13.518 5.67629 13.4525 6.1352 13.338C3.61958 12.8469 1.73281 10.7193 1.73281 8.14973V8.08429C2.46367 8.47709 3.31362 8.72258 4.21441 8.75528C2.73563 7.806 1.76682 6.18572 1.76682 4.35265C1.76682 3.37067 2.03873 2.47051 2.51468 1.6849C5.21729 4.89276 9.2797 6.98765 13.835 7.21682C13.75 6.82402 13.699 6.41489 13.699 6.00572C13.699 3.09243 16.1466 0.719299 19.1892 0.719299C20.7699 0.719299 22.1977 1.3576 23.2006 2.38869C24.4413 2.15957 25.6311 1.71765 26.685 1.1121C26.277 2.33962 25.4102 3.37072 24.2714 4.02534C25.3762 3.91083 26.4471 3.61616 27.4329 3.20704C26.6851 4.25446 25.7502 5.18732 24.6794 5.94023Z" fill="#001217"/>
</svg>
