<svg width="25" height="25" fill="none" xmlns="http://www.w3.org/2000/svg"><path d="M12.503 6.099c-3.538 0-6.392 2.841-6.392 6.364 0 3.522 2.854 6.363 6.392 6.363 3.538 0 6.392-2.84 6.392-6.363 0-3.523-2.854-6.364-6.392-6.364zm0 10.5c-2.287 0-4.156-1.854-4.156-4.136s1.864-4.138 4.156-4.138 4.156 1.856 4.156 4.138-1.87 4.137-4.156 4.137zm8.145-10.76c0 .825-.668 1.484-1.491 1.484a1.484 1.484 0 110-2.969c.823 0 1.49.665 1.49 1.484zm4.233 1.506c-.094-1.988-.55-3.75-2.014-5.2C21.41.692 19.641.238 17.643.138 15.585.023 9.415.023 7.357.14c-1.992.094-3.761.549-5.224 2C.67 3.589.219 5.35.119 7.339c-.117 2.05-.117 8.192 0 10.241.094 1.989.55 3.75 2.014 5.201 1.463 1.451 3.227 1.905 5.224 2.005 2.058.116 8.228.116 10.286 0 1.998-.094 3.767-.548 5.224-2.005 1.458-1.451 1.914-3.212 2.014-5.2.117-2.05.117-8.187 0-10.236zm-2.659 12.434a4.198 4.198 0 01-2.37 2.36c-1.641.648-5.535.498-7.35.498-1.813 0-5.713.144-7.348-.498a4.198 4.198 0 01-2.37-2.36c-.651-1.634-.501-5.51-.501-7.316s-.145-5.689.5-7.317a4.198 4.198 0 012.37-2.36c1.642-.647 5.536-.498 7.35-.498s5.713-.144 7.35.499a4.198 4.198 0 012.37 2.36c.65 1.633.5 5.51.5 7.316 0 1.805.15 5.688-.5 7.316z" fill="#001217"/></svg>