<svg width="28" height="22" fill="none" xmlns="http://www.w3.org/2000/svg"><path d="M24.68 5.94c.016.23.016.459.016.688 0 6.988-5.524 15.04-15.62 15.04-3.11 0-6-.867-8.431-2.373.442.05.867.066 1.326.066 2.566 0 4.93-.835 6.816-2.259-2.414-.049-4.437-1.57-5.133-3.666.34.05.68.082 1.036.082.493 0 .986-.066 1.445-.18-2.515-.491-4.402-2.619-4.402-5.188v-.066c.73.393 1.58.639 2.481.671-1.478-.949-2.447-2.57-2.447-4.402a5.1 5.1 0 01.748-2.668c2.702 3.208 6.765 5.303 11.32 5.532a5.753 5.753 0 01-.136-1.211c0-2.914 2.448-5.287 5.49-5.287 1.58 0 3.009.639 4.012 1.67 1.24-.23 2.43-.671 3.484-1.277-.408 1.228-1.275 2.259-2.414 2.913a11.342 11.342 0 003.162-.818 11.574 11.574 0 01-2.754 2.733z" fill="#001217"/></svg>